<?xml version="1.0" standalone="no"?><!DOCTYPE svg PUBLIC "-//W3C//DTD SVG 1.1//EN" "http://www.w3.org/Graphics/SVG/1.1/DTD/svg11.dtd"><svg t="1684477297859" class="icon" viewBox="0 0 1053 1024" version="1.1" xmlns="http://www.w3.org/2000/svg" p-id="33426" xmlns:xlink="http://www.w3.org/1999/xlink" width="32.90625" height="32"><path d="M203.145846 736.807385a26.811077 26.811077 0 0 1 1.634462 53.582769l-1.634462 0.049231h-15.310769a132.273231 132.273231 0 0 0-93.331692 39.443692 132.676923 132.676923 0 0 0-37.464616 79.556923l-0.226461 2.550154 1.319384 0.817231c3.928615 2.304 8.763077 4.568615 14.424616 6.784l4.411077 1.644307c0.768 0.275692 1.536 0.551385 2.323692 0.817231l4.883692 1.624615 2.56 0.797539 5.316923 1.585231c0.915692 0.265846 1.841231 0.531692 2.786462 0.787692l5.769846 1.555692 6.055385 1.526154 6.350769 1.506462 6.616615 1.476923 6.892308 1.457231 7.158154 1.437538 7.414154 1.398154 7.68 1.378461 11.972923 2.008616 8.290461 1.309538 8.526769 1.270154 13.213539 1.851077 13.725538 1.792 9.42277 1.142154 9.629538 1.112615 9.836308 1.083077 15.123692 1.555692 15.556923 1.476924 21.366154 1.84123 16.492308 1.28 16.866461 1.191385 17.211077 1.102769 17.545846 1.014154 17.860923 0.915692 12.081231 0.551385 12.199385 0.512 18.530461 0.689231 12.504616 0.393846 18.944 0.512 12.760615 0.285538 19.308308 0.33477 12.996923 0.157538 19.623384 0.147692 20.440616 0.039385 13.302154-0.049231 19.810461-0.157538 19.603693-0.285539 12.957538-0.246154 19.229538-0.462769 18.993231-0.571077 18.707693-0.679384 18.441846-0.777847 18.126769-0.886153 17.811692-0.97477 17.467077-1.07323 17.102769-1.171693 11.195077-0.827077 16.472616-1.319384 16.04923-1.408 10.476308-0.984616 10.279385-1.024 15.035077-1.595077 9.757538-1.112615 9.550769-1.152 13.912616-1.772308 8.989538-1.240615 8.763077-1.260308 8.507077-1.289846 8.270769-1.329231 8.024616-1.348923 7.778461-1.378461 7.492923-1.417846 7.24677-1.447385 6.971076-1.467077 6.695385-1.486769 6.4-1.526154 6.124308-1.545846c1.988923-0.512 3.938462-1.033846 5.819077-1.565539l5.533538-1.595077 5.218462-1.614769c1.693538-0.541538 3.328-1.083077 4.923077-1.634461l4.588307-1.664c6.665846-2.500923 12.238769-5.080615 16.64-7.709539l1.437539-0.905846-0.236308-2.756923c-2.953846-28.672-15.172923-55.729231-34.953846-76.937846l-2.510769-2.619077a132.204308 132.204308 0 0 0-89.55077-39.374769l-3.603692-0.068923h-15.488a26.811077 26.811077 0 0 1-1.634461-53.58277l1.634461-0.04923h15.665231a185.905231 185.905231 0 0 1 131.170461 55.433846 186.368 186.368 0 0 1 53.592616 132.017231 26.870154 26.870154 0 0 1-6.685539 17.526153c-8.891077 10.112-24.300308 19.219692-45.351384 27.323077l-6.488616 2.402462c-8.871385 3.160615-18.628923 6.163692-29.23323 9.009231l-8.103385 2.09723c-2.756923 0.689231-5.553231 1.368615-8.408615 2.038154l-8.713847 1.979077c-1.476923 0.324923-2.963692 0.649846-4.470153 0.964923l-9.156923 1.890462-9.452308 1.831384-9.728 1.772308-10.013539 1.693539-10.279384 1.654153-10.555077 1.575385-10.820923 1.526154-11.076923 1.467077-5.632 0.708923-11.451077 1.378461-11.697231 1.309539-11.943385 1.250461-12.179692 1.181539-12.406154 1.132308-12.622769 1.063384-12.849231 1.004308-13.065846 0.945231-13.272615 0.886153-13.479385 0.827077-20.578461 1.112616-13.961847 0.669538-21.29723 0.886154-14.41477 0.521846-14.592 0.452923-14.759384 0.393846-14.916923 0.324924-15.074462 0.265846-15.232 0.206769-15.369846 0.147692-23.335385 0.098462h-15.655384l-15.537231-0.078769-23.049846-0.216616-15.192616-0.226461-15.044923-0.285539-14.887384-0.344615-14.739693-0.403693-14.572307-0.472615-14.385231-0.531692-14.227692-0.590769-14.040616-0.649847-13.863384-0.708923-20.43077-1.181538-13.371076-0.856616-13.174154-0.925538-12.957539-0.984615-12.740923-1.043693-12.534154-1.102769-12.307692-1.161846-12.061538-1.220923-11.835077-1.28-11.59877-1.348923-5.710769-0.689231-11.224615-1.437538-10.958769-1.496616-5.395693-0.768-10.574769-1.575384-10.308923-1.644308-5.060923-0.846769-9.895385-1.732923a890.092308 890.092308 0 0 1-4.844307-0.886154l-9.481847-1.821539-9.186461-1.870769-8.900923-1.939692C61.154462 973.971692 25.403077 959.488 9.649231 942.060308a26.860308 26.860308 0 0 1-6.931693-17.801846A186.368 186.368 0 0 1 56.32 792.241231a185.984 185.984 0 0 1 126.985846-55.355077l4.361846-0.078769h15.488zM764.041846 228.696615a26.820923 26.820923 0 0 1 26.761846 25.186462l0.049231 1.634461v90.338462l0.728615 0.374154c19.328 10.190769 25.6 27.677538 25.964308 53.888l0.009846 54.498461 0.098462 0.787693a80.344615 80.344615 0 0 1-24.910769 66.09723l-1.900308 1.703385-0.039385 1.368615a26.820923 26.820923 0 0 1-25.127384 25.137231l-1.634462 0.049231a26.820923 26.820923 0 0 1-26.771692-25.186462l-0.049231-1.634461v-13.371077c0-9.019077 4.529231-17.388308 11.982769-22.340923l1.644308-1.004308a26.683077 26.683077 0 0 0 13.489231-24.782769l-0.344616-3.623385-0.059077-1.732923v-55.08923l0.226462-7.010462c0.009846-1.506462-0.177231-1.939692-0.955077-2.107077l-0.708923-0.098461-1.565538-0.128a23.68 23.68 0 0 1-0.669539-0.088616l-1.614769-0.265846a26.820923 26.820923 0 0 1-21.366154-24.546462l-0.059077-1.723076V255.507692a26.811077 26.811077 0 0 1 26.820923-26.820923zM256.561231 268.809846a26.820923 26.820923 0 0 1 26.771692 25.186462l0.049231 1.634461v69.395693c0 10.220308-5.809231 19.495385-14.848 23.995076l-1.742769 0.787693a16.502154 16.502154 0 0 0-10.013539 12.878769l-0.108308 0.955077v53.179077a36.598154 36.598154 0 0 0 13.686154 29.577846l1.713231 1.289846a26.811077 26.811077 0 0 1 11.244308 20.027077l0.068923 1.851077v13.371077a26.811077 26.811077 0 0 1-53.582769 1.634461l-0.049231-1.634461v-0.984615l-0.098462-0.098462c-16.807385-16.669538-26.496-39.384615-26.643692-62.838154l0.029538-2.934154v-53.484307l0.049231-1.536a70.163692 70.163692 0 0 1 25.186462-49.939693l1.476923-1.191384v-54.301539a26.820923 26.820923 0 0 1 25.186461-26.771692l1.624616-0.049231z" p-id="33427"></path><path d="M579.741538 1.378462c7.611077 0 14.857846 3.239385 19.938462 8.891076a226.284308 226.284308 0 0 1 53.927385 108.327385l0.571077 3.131077h69.799384c43.874462 0 65.998769 32.521846 66.855385 77.587692l0.019692 2.717539v53.484307a26.820923 26.820923 0 0 1-25.176615 26.761847l-1.634462 0.04923h-141.784615l-0.452923 0.708923a237.607385 237.607385 0 0 1-194.097231 106.24l-4.214154 0.019693c-125.134769 0-231.660308-100.765538-233.777231-223.655385l-0.029538-3.731692v-26.742154a26.811077 26.811077 0 0 1 53.582769-1.634462l0.049231 1.634462v26.742154c0 94.424615 82.884923 173.755077 180.224 173.755077a184.004923 184.004923 0 0 0 160.384-93.371077 26.811077 26.811077 0 0 1 21.405538-13.528616l1.92-0.068923h129.969231v-26.663384c0-19.652923-3.771077-26.171077-12.209231-26.643693l-1.033846-0.029538h-93.489231a26.811077 26.811077 0 0 1-26.752-25.058462 172.701538 172.701538 0 0 0-35.958153-94.64123l-0.521847-0.649846H216.507077A26.820923 26.820923 0 0 1 189.735385 29.833846l-0.049231-1.634461A26.820923 26.820923 0 0 1 214.872615 1.437538l1.634462-0.04923H579.741538zM749.735385 486.892308l-91.963077 57.974154-73.403077-44.809847a26.811077 26.811077 0 0 0-13.971693-3.938461h-103.08923l-2.048 0.088615a26.811077 26.811077 0 0 0-11.52 3.603693l-77.971693 45.705846-106.112-59.352616c-17.870769-9.993846-39.906462 2.924308-39.906461 23.404308v93.597538c0 152.300308 129.742769 294.242462 280.556308 294.242462 150.803692 0 280.546462-141.942154 280.546461-294.242462v-93.597538c0-21.110154-23.256615-33.939692-41.117538-22.685538z m-186.88 62.857846l81.171692 49.565538 1.772308 0.984616a26.811077 26.811077 0 0 0 26.505846-1.191385l64.915692-40.940308v44.996923c0 123.707077-106.850462 240.610462-226.914461 240.610462l-3.603693-0.029538c-118.587077-2.304-223.320615-118.114462-223.320615-240.580924l-0.009846-47.881846 79.625846 44.544 1.683692 0.866462c7.965538 3.741538 17.309538 3.347692 24.969846-1.132308l84.923077-49.811692h88.280616z" p-id="33428"></path><path d="M537.009231 589.725538a26.811077 26.811077 0 0 1 1.634461 53.58277l-1.634461 0.04923h-53.415385a26.811077 26.811077 0 0 1-1.634461-53.582769l1.634461-0.049231h53.415385zM510.306462 843.776a26.820923 26.820923 0 0 1 26.761846 25.186462l0.04923 1.634461v106.968615a26.811077 26.811077 0 0 1-53.582769 1.634462l-0.049231-1.634462V870.596923a26.811077 26.811077 0 0 1 26.820924-26.820923z" p-id="33429"></path></svg>